<svg xmlns="http://www.w3.org/2000/svg" viewBox="0 0 334.1 94.6"><path d="M111.9 32.4v20.9h-8.5V16.8h6.6l17.1 21.5V16.8h8.5v36.6h-6.8l-16.9-21zm71.8 13.5v7.4H158V16.8h25.3v7.4h-16.8v7.1h14.4v6.9h-14.4V46h17.2zm26-29.1l8 12.6 8-12.6h9.1l-12.7 18.6 12.3 18h-9.1l-7.6-12.1-7.6 12.1h-9.2l12.3-18-12.7-18.6h9.2zm59.4 29.4c1.3 0 2.5-.3 3.7-.9 1-.6 1.8-1.4 2.4-2.4.6-1.1 1.1-2.2 1.3-3.4.3-1.3.4-2.6.4-3.9V16.8h8.5v18.7c0 2.4-.3 4.8-1 7.1-.6 2.1-1.6 4.1-3 5.8-1.4 1.7-3.1 3-5.1 3.9-2.3 1-4.8 1.5-7.3 1.4-2.6.1-5.1-.4-7.5-1.5-2-.9-3.7-2.3-5-4-1.3-1.7-2.3-3.7-2.8-5.8-.6-2.3-.9-4.6-.9-6.9V16.8h8.5v18.7c0 1.4.1 2.7.4 4 .2 1.2.7 2.3 1.3 3.4.6 1 1.4 1.8 2.4 2.4 1.2.6 2.4.9 3.7.9zm60.2-18.7c-.3-.3-.7-.6-1.1-.8-.7-.4-1.5-.8-2.3-1.2-1-.4-2-.8-3-1.1-1.1-.3-2.2-.5-3.3-.5-3 0-4.5 1-4.5 3 0 .6.1 1.1.5 1.5.4.5.9.8 1.4 1.1.8.4 1.6.7 2.4.9 1 .3 2.1.6 3.4.9 1.6.4 3.2 1 4.7 1.6 1.3.5 2.5 1.2 3.6 2.1 1 .8 1.8 1.9 2.3 3.1.6 1.4.8 2.8.8 4.3.1 1.8-.3 3.6-1.2 5.2-.7 1.4-1.8 2.6-3.1 3.5-1.3.9-2.8 1.6-4.4 1.9-1.7.4-3.4.6-5.1.6-1.4 0-2.8-.1-4.1-.3-1.4-.2-2.8-.5-4.1-.9-1.3-.4-2.6-.9-3.9-1.4-1.2-.5-2.4-1.2-3.5-1.9l3.7-7.4c.4.4.9.7 1.3 1 .9.6 1.8 1 2.8 1.4 1.2.5 2.5.9 3.7 1.3 1.4.4 2.8.6 4.2.6 3 0 4.5-.9 4.5-2.7 0-.6-.2-1.3-.7-1.7-.5-.5-1.2-.9-1.9-1.2-.9-.4-1.8-.7-2.8-1-1.1-.3-2.3-.7-3.5-1-1.5-.4-3-1-4.4-1.7-1.1-.5-2.2-1.2-3.1-2.1-.8-.8-1.4-1.7-1.8-2.7-.4-1.2-.6-2.4-.6-3.6 0-1.8.3-3.5 1.1-5.1.7-1.4 1.7-2.7 2.9-3.7 1.3-1 2.7-1.8 4.3-2.3 1.7-.5 3.4-.8 5.2-.8 1.3 0 2.5.1 3.8.4 1.2.2 2.4.5 3.6.9 1.1.4 2.1.8 3.2 1.3 1 .5 1.9 1 2.7 1.4l-3.7 7.1zM117.6 62.7h-6V78h-2.2V62.7h-6v-1.9h14.1l.1 1.9zm21.5 13.4v2h-11.8V60.7h11.5v1.9h-9.3v5.6h8.1V70h-8.1v6l9.6.1zm8.9-6.9c0-1.1.2-2.1.5-3.1.4-1 .9-2 1.6-2.8.7-.8 1.6-1.5 2.6-2 1.1-.5 2.3-.8 3.5-.8 1.4 0 2.8.3 4 1 1.1.7 1.9 1.6 2.5 2.7l-1.7 1.1c-.2-.5-.6-1-.9-1.4-.3-.4-.8-.7-1.2-.9-.4-.2-.9-.4-1.3-.5-.4-.1-.9-.1-1.3-.1-.9 0-1.8.2-2.5.6-.7.4-1.4.9-1.9 1.6-.5.6-.9 1.4-1.1 2.2-.2.8-.4 1.6-.4 2.4 0 .9.1 1.8.5 2.6.3.8.7 1.5 1.3 2.2.5.6 1.2 1.1 1.9 1.5.7.4 1.6.6 2.4.6.5 0 .9-.1 1.4-.2.5-.1.9-.3 1.4-.5.5-.3.9-.6 1.2-1 .4-.4.7-.9.9-1.4l1.8 1c-.3.6-.7 1.2-1.2 1.7s-1.1.9-1.7 1.3c-.6.3-1.3.6-2 .8-.7.2-1.4.3-2 .3-1.1 0-2.3-.3-3.3-.8s-1.9-1.2-2.6-2c-.7-.8-1.3-1.8-1.7-2.9-.5-.9-.7-2-.7-3.2zm39-8.5V78h-2.2v-7.9h-9.5V78H173V60.7h2.2v7.5h9.5v-7.5h2.3zm13.6 4.1V78h-2.2V60.7h1.7l10.7 13.5V60.7h2.2V78h-1.9l-10.5-13.2zm30.9 13.3c-1.2 0-2.3-.2-3.3-.7-1-.5-1.9-1.1-2.6-2-.7-.8-1.3-1.8-1.7-2.8-.4-1-.6-2.1-.6-3.2s.2-2.3.6-3.3c.4-1 1-2 1.7-2.8.7-.8 1.6-1.5 2.6-1.9 1-.5 2.1-.7 3.3-.7 1.2 0 2.3.2 3.3.8 1 .5 1.8 1.2 2.6 2 .7.8 1.3 1.8 1.7 2.8.4 1 .6 2.1.6 3.2s-.2 2.3-.6 3.3c-.4 1-1 2-1.7 2.8-.7.8-1.6 1.5-2.6 1.9-1 .4-2.1.7-3.3.6zm-5.9-8.7c0 .9.1 1.7.4 2.5.3.8.7 1.5 1.2 2.2.5.6 1.2 1.1 1.9 1.5.8.4 1.6.6 2.4.6.9 0 1.7-.2 2.5-.6.7-.4 1.4-.9 1.9-1.6.5-.7.9-1.4 1.2-2.2.3-.8.4-1.6.4-2.5 0-.9-.1-1.7-.4-2.5-.3-.8-.7-1.5-1.2-2.2-.5-.6-1.2-1.1-1.9-1.5-.7-.4-1.6-.6-2.4-.6-.9 0-1.7.2-2.5.6-.7.4-1.4.9-1.9 1.5s-.9 1.4-1.2 2.2c-.2.9-.4 1.7-.4 2.6zm24.5 8.6V60.7h2.2v15.4h9.7v2h-11.9zm28 .1c-1.2 0-2.3-.2-3.3-.7-1-.5-1.9-1.1-2.6-2-.7-.8-1.3-1.8-1.7-2.8-.4-1-.6-2.1-.6-3.2s.2-2.3.6-3.3c.4-1 1-2 1.7-2.8.7-.8 1.6-1.5 2.6-1.9 1-.5 2.1-.7 3.3-.7 1.2 0 2.3.2 3.3.8 1 .5 1.8 1.2 2.6 2 .7.8 1.3 1.8 1.7 2.8.4 1 .6 2.1.6 3.2s-.2 2.3-.6 3.3c-.4 1-1 2-1.7 2.8-.7.8-1.6 1.5-2.6 1.9-1.1.4-2.2.7-3.3.6zm-5.9-8.7c0 .9.1 1.7.4 2.5.3.8.7 1.5 1.2 2.2.5.6 1.2 1.1 1.9 1.5.8.4 1.6.6 2.4.6.9 0 1.7-.2 2.5-.6.7-.4 1.4-.9 1.9-1.6.5-.7.9-1.4 1.2-2.2.3-.8.4-1.6.4-2.5 0-.9-.1-1.7-.4-2.5-.3-.8-.7-1.5-1.2-2.2-.5-.6-1.2-1.1-1.9-1.5-.7-.4-1.6-.6-2.4-.6-.9 0-1.7.2-2.5.6-.7.4-1.4.9-1.9 1.5s-.9 1.4-1.2 2.2c-.3.9-.4 1.7-.4 2.6zm36.7 6.3c-1.3 1.5-3.2 2.4-5.3 2.5-1.1 0-2.2-.3-3.2-.8s-1.8-1.2-2.5-2-1.3-1.8-1.7-2.8c-.4-1-.6-2.1-.6-3.3 0-1.1.2-2.3.6-3.3.4-1 1-2 1.7-2.8.7-.8 1.6-1.5 2.6-1.9 1-.5 2.1-.7 3.2-.7 1.5-.1 2.9.3 4.1 1 1.1.7 1.9 1.6 2.5 2.7l-1.7 1.2c-.5-.9-1.2-1.7-2.1-2.2-.9-.5-1.9-.7-2.9-.7-.8 0-1.7.2-2.4.6-.7.4-1.3.9-1.8 1.5s-.9 1.4-1.2 2.2c-.3.8-.4 1.7-.4 2.5 0 .9.2 1.8.5 2.6s.7 1.5 1.3 2.2c.5.6 1.2 1.1 1.9 1.5.7.4 1.6.5 2.4.5 2-.1 3.9-1.1 5.1-2.7V71h-3.7v-1.7h5.6V78h-1.8v-2.3zm12.3-15l5.2 9 5.3-9h2.4l-6.6 11V78h-2.2v-6.4l-6.6-10.9h2.5z"/><g><linearGradient id="a" gradientUnits="userSpaceOnUse" x1="-11.613" y1="10.441" x2="93.387" y2="82.441"><stop offset="0" stop-color="#f0f"/><stop offset="1" stop-color="#0ff"/></linearGradient><path d="M84.3 65.8c-.1-1.6-.7-3.2-1.6-4.5-1-1.4-2.2-2.5-3.2-3.9-1.8-2.6-2.8-5.7-3-8.8-.2-3.1.4-6.2 1.7-9 .7-1.5 1.6-2.8 2.6-4 1-1.1 2-2.1 2.6-3.5 1.5-3.1 1-6.9-1.2-9.6-2.2-2.6-5.9-3.9-9.3-3-3.3.9-6 3.8-6.5 7.2-.6 3.4.9 6.1 3.1 8.6 4.5 4.9 5.8 12.1 3.5 18.3-.6 1.5-1.2 3-2.6 3.9-1.4.9-3 .9-4.6.7-3.1-.4-6-1.7-8.5-3.6-2.5-1.9-4.5-4.5-5.7-7.4-.6-1.5-.9-3.2-1.8-4.7-.9-1.4-2.1-2.5-3.6-3.3-1.3-.6-2.6-.9-4.1-.9-1.6 0-3.1.5-4.7.7-3 .4-6.1 0-8.9-1.1-2.8-1.1-5.3-2.9-7.3-5.3-1-1.2-1.8-2.5-2.5-3.9s-.9-2.9-1.6-4.3c-1.4-3.1-4.5-5.2-8-5.3C5.8 19.1 2.6 21 1 24c-1.5 3-1.3 6.7.7 9.4 1 1.3 2.2 2.4 3.1 3.8.9 1.3 1.6 2.8 2.1 4.3 2.1 6 .7 12.9-3.5 17.7-1 1.1-2 2.2-2.6 3.5-.7 1.6-.9 3.4-.7 5.1C.6 71.1 3 74 6.3 75c3.3 1 7.1.1 9.4-2.5 2.3-2.6 3-6.2 1.7-9.5-.6-1.4-1.6-2.5-2.6-3.6-1.1-1.3-2.1-2.7-2.8-4.2-1.4-2.9-2-6.3-1.7-9.5.3-2.9 1.2-7 3.8-8.6 2.6-1.6 6.5-.4 9.1.7 2.8 1.2 5.3 3.1 7.2 5.6 1 1.3 1.8 2.7 2.4 4.1.6 1.5.9 3.2 1.8 4.7 1.7 2.6 4.6 4.2 7.7 4.2 1.6 0 3.2-.6 4.8-.8 1.5-.2 3.1-.2 4.7 0 6.1.8 11.4 4.8 14 10.4.6 1.4.9 2.8 1.5 4.1.7 1.5 1.8 2.9 3.2 3.8 2.9 1.9 6.8 2 9.7.2 2.7-1.7 4.3-5 4.1-8.3z" fill="url(#a)"/><linearGradient id="b" gradientUnits="userSpaceOnUse" x1="-1.831" y1="-3.825" x2="103.169" y2="68.175"><stop offset="0" stop-color="#f0f"/><stop offset="1" stop-color="#0ff"/></linearGradient><path d="M64.5 33.1c-.2-.5-.4-1.1-.6-1.6-3 4.3-7.9 7.1-13.2 7.6 1.4 1.4 2.2 3 2.9 4.9 3-4.3 7.9-7.1 13.1-7.6-.9-1-1.6-2.1-2.2-3.3z" fill="url(#b)"/><linearGradient id="c" gradientUnits="userSpaceOnUse" x1="-21.389" y1="24.697" x2="83.611" y2="96.697"><stop offset="0" stop-color="#f0f"/><stop offset="1" stop-color="#0ff"/></linearGradient><path d="M19.8 61.5c.2.5.4 1.1.6 1.6 3-4.3 7.9-7.1 13.2-7.6-1.4-1.4-2.2-3-2.9-4.9-3 4.3-7.9 7.1-13.1 7.6.9 1.1 1.6 2.1 2.2 3.3z" fill="url(#c)"/><linearGradient id="d" gradientUnits="userSpaceOnUse" x1="1.627" y1="-8.868" x2="106.627" y2="63.132"><stop offset="0" stop-color="#f0f"/><stop offset="1" stop-color="#0ff"/></linearGradient><path d="M18.5 21c.9 1.2 1.5 2.5 1.9 3.9 3.6-5.2 9.8-8.2 16.1-7.8 1.7.1 3.4.8 5.1.9 1.6.1 3.1-.4 4.6-.7 3.1-.5 6.4-.1 9.3 1 3.3 1.3 6.2 3.7 8.3 6.6.5-1.9 1.5-3.6 2.9-5.1-4.4-.4-8.5-2.4-11.6-5.5-1.5-1.6-2.7-3.5-3.6-5.5-.9-2.2-1.3-4.4-3-6.2-3.1-3.2-8.1-3.5-11.7-1C35 3 33.9 5 33.3 7.2c-.6 2.2-1.8 4.3-3.2 6-3.1 3.8-7.7 6.3-12.6 6.7.4.4.7.7 1 1.1z" fill="url(#d)"/><linearGradient id="e" gradientUnits="userSpaceOnUse" x1="-24.843" y1="29.734" x2="80.157" y2="101.734"><stop offset="0" stop-color="#f0f"/><stop offset="1" stop-color="#0ff"/></linearGradient><path d="M65.8 73.6c-.9-1.2-1.5-2.5-1.9-3.9-3.7 5.4-10.3 8.5-16.8 7.7-1.5-.2-3-.7-4.6-.8-1.4 0-2.6.3-4 .6-3.2.6-6.6.3-9.7-.9-3.4-1.3-6.3-3.7-8.4-6.7-.5 1.9-1.5 3.6-2.9 5.1 4.3.4 8.5 2.3 11.5 5.4 1.5 1.6 2.8 3.5 3.6 5.5.9 2.2 1.2 4.4 2.9 6.1 3.2 3.3 8.3 3.8 12 1.1 2-1.5 2.8-3.4 3.5-5.7.7-2.1 1.7-4 3.1-5.7 3.1-3.8 7.7-6.3 12.6-6.7-.3-.3-.6-.7-.9-1.1z" fill="url(#e)"/></g></svg>